<svg width="14" height="13" viewBox="0 0 14 13" fill="none" xmlns="http://www.w3.org/2000/svg">
<path d="M6.66006 0.717285C10.2401 0.717285 13.1601 3.104 13.1601 5.99854C13.1601 8.91846 10.2401 11.2798 6.66006 11.2798C5.66982 11.2798 4.75576 11.1021 3.91787 10.7974C3.3085 11.3052 2.03896 12.0923 0.363183 12.0923C0.261621 12.0923 0.21084 12.0669 0.160058 11.9907C0.134668 11.9146 0.160058 11.813 0.21084 11.7622C0.21084 11.7368 1.27725 10.6196 1.60732 9.32471C0.693262 8.41064 0.160058 7.26807 0.160058 5.99854C0.160058 3.104 3.05459 0.717285 6.66006 0.717285ZM3.41006 6.81104C3.8417 6.81104 4.22256 6.45557 4.22256 5.99854C4.22256 5.56689 3.8417 5.18604 3.41006 5.18604C2.95303 5.18604 2.59756 5.56689 2.59756 5.99854C2.59756 6.45557 2.95303 6.81104 3.41006 6.81104ZM6.66006 6.81104C7.0917 6.81104 7.47256 6.45557 7.47256 5.99854C7.47256 5.56689 7.0917 5.18604 6.66006 5.18604C6.20303 5.18604 5.84756 5.56689 5.84756 5.99854C5.84756 6.45557 6.20303 6.81104 6.66006 6.81104ZM9.91006 6.81104C10.3417 6.81104 10.7226 6.45557 10.7226 5.99854C10.7226 5.56689 10.3417 5.18604 9.91006 5.18604C9.45303 5.18604 9.09756 5.56689 9.09756 5.99854C9.09756 6.45557 9.45303 6.81104 9.91006 6.81104Z" fill="#484848"/>
</svg>
