<svg width="15" height="14" viewBox="0 0 15 14" fill="none" xmlns="http://www.w3.org/2000/svg">
<path d="M14.6601 3.96729V11.8423C14.6601 12.5806 14.0585 13.1548 13.3476 13.1548H1.97256C1.23428 13.1548 0.660058 12.5806 0.660058 11.8423V3.96729C0.660058 3.25635 1.23428 2.65479 1.97256 2.65479H4.37881L4.70693 1.77979C4.89834 1.26025 5.39053 0.904785 5.9374 0.904785H9.35537C9.90225 0.904785 10.3944 1.26025 10.5858 1.77979L10.9413 2.65479H13.3476C14.0585 2.65479 14.6601 3.25635 14.6601 3.96729ZM10.9413 7.90479C10.9413 6.1001 9.46475 4.62354 7.66006 4.62354C5.82803 4.62354 4.37881 6.1001 4.37881 7.90479C4.37881 9.73682 5.82803 11.186 7.66006 11.186C9.46475 11.186 10.9413 9.73682 10.9413 7.90479ZM10.0663 7.90479C10.0663 9.24463 8.97256 10.311 7.66006 10.311C6.32021 10.311 5.25381 9.24463 5.25381 7.90479C5.25381 6.59229 6.32021 5.49854 7.66006 5.49854C8.97256 5.49854 10.0663 6.59229 10.0663 7.90479Z" fill="#484848"/>
</svg>
