<svg width="15" height="14" viewBox="0 0 15 14" fill="none" xmlns="http://www.w3.org/2000/svg">
<path d="M13.6996 8.21729C13.9535 8.21729 14.1566 8.4458 14.1058 8.67432C13.9281 10.0962 13.2425 11.3403 12.2523 12.2544C12.0999 12.4067 11.846 12.4067 11.6937 12.2544L7.68197 8.21729H13.6996ZM13.2933 6.59229C13.3187 6.8208 13.1156 6.99854 12.8871 6.99854H7.22494V1.33643C7.22494 1.10791 7.40268 0.904785 7.63119 0.930176C10.6781 1.1333 13.0902 3.54541 13.2933 6.59229ZM6.00619 8.21729L9.94174 12.1782C10.1195 12.356 10.1195 12.6606 9.91635 12.7876C8.9515 13.4985 7.75814 13.9048 6.48861 13.9048C3.21322 13.9556 0.420254 11.2896 0.318691 8.03955C0.191738 4.86572 2.50229 2.2251 5.54916 1.79346C5.77768 1.76807 6.00619 1.97119 6.00619 2.19971V8.21729Z" fill="#484848"/>
</svg>
