<svg width="11" height="11" xmlns="http://www.w3.org/2000/svg" fill="none">
 <defs>
  <clipPath id="clip0_2069_405">
   <rect id="svg_1" transform="matrix(1 0 0 -1 0.5 10.2803)" fill="white" height="10" width="10"/>
  </clipPath>
 </defs>
 <g>
  <title>Layer 1</title>
  <g transform="rotate(-180 4.99777 6.14244)" id="svg_2" clip-path="url(#clip0_2069_405)">
   <path id="svg_3" fill="white" d="m9.38951,4.7892l-4.14063,4.13505c-0.07068,0.07068 -0.15439,0.10602 -0.25111,0.10602c-0.09673,0 -0.18043,-0.03534 -0.25112,-0.10602l-4.14062,-4.13505c-0.07069,-0.07068 -0.10603,-0.15532 -0.10603,-0.2539c0,-0.09859 0.03534,-0.18323 0.10603,-0.25391l0.92634,-0.92076c0.07068,-0.07068 0.15439,-0.10603 0.25111,-0.10603c0.09673,0 0.18043,0.03535 0.25112,0.10603l2.96317,2.96317l2.96317,-2.96317c0.07068,-0.07068 0.15439,-0.10603 0.25111,-0.10603c0.09673,0 0.18044,0.03535 0.25112,0.10603l0.92634,0.92076c0.07068,0.07068 0.10603,0.15532 0.10603,0.25391c0,0.09858 -0.03535,0.18322 -0.10603,0.2539z"/>
  </g>
 </g>
</svg>