<svg width="11" height="11" viewBox="0 0 11 11" fill="none" xmlns="http://www.w3.org/2000/svg">
<g clip-path="url(#clip0_2069_405)">
<path d="M9.38951 4.7892L5.24888 8.92425C5.1782 8.99493 5.09449 9.03027 4.99777 9.03027C4.90104 9.03027 4.81734 8.99493 4.74665 8.92425L0.606027 4.7892C0.535342 4.71852 0.5 4.63388 0.5 4.5353C0.5 4.43671 0.535342 4.35207 0.606027 4.28139L1.53237 3.36063C1.60305 3.28995 1.68676 3.2546 1.78348 3.2546C1.88021 3.2546 1.96391 3.28995 2.0346 3.36063L4.99777 6.3238L7.96094 3.36063C8.03162 3.28995 8.11533 3.2546 8.21205 3.2546C8.30878 3.2546 8.39249 3.28995 8.46317 3.36063L9.38951 4.28139C9.46019 4.35207 9.49554 4.43671 9.49554 4.5353C9.49554 4.63388 9.46019 4.71852 9.38951 4.7892Z" fill="white"/>
</g>
<defs>
<clipPath id="clip0_2069_405">
<rect width="10" height="10" fill="white" transform="matrix(1 0 0 -1 0.5 10.2803)"/>
</clipPath>
</defs>
</svg>
